<svg xmlns="http://www.w3.org/2000/svg" width="24" height="28" viewBox="0 0 24 28">
  <defs>
    <style>
      .cls-1 {
        fill: #fff;
        fill-rule: evenodd;
      }
    </style>
  </defs>
  <path id="Apple_Logo" data-name="Apple Logo" class="cls-1" d="M739.829,4979.26c3.267,0,5.355,3.14,5.355,3.14a6.465,6.465,0,0,0-3.186,5.44,6.055,6.055,0,0,0,4,5.72s-3.16,7.44-6.708,7.44c-2,0-2.129-1.14-4.779-1.14-2.3,0-3.08,1.14-4.834,1.14-3.347,0-7.671-7.26-7.671-13.16,0-6.13,4.378-8.58,7.122-8.58,2.41,0,3.415,1.41,5.356,1.41C736.12,4980.67,737.406,4979.26,739.829,4979.26Zm-0.562-6.25c0.482,3-2.263,6.72-5.543,6.6C733.242,4975.79,736.776,4973.21,739.267,4973.01Z" transform="translate(-722 -4973)"/>
</svg>
