<svg xmlns="http://www.w3.org/2000/svg" width="13.03" height="11.06" viewBox="0 0 13.03 11.06">
  <defs>
    <style>
      .cls-1 {
        fill: #fff;
        fill-rule: evenodd;
      }
    </style>
  </defs>
  <path id="Arrow_Icon" data-name="Arrow Icon" class="cls-1" d="M1017.52,4831.36l4.09,4.08a1.45,1.45,0,1,1-2.05,2.05l-4.08-4.09A1.442,1.442,0,1,1,1017.52,4831.36Zm4.09,4.08a1.461,1.461,0,0,1,0,2.05l-4.09,4.08a1.442,1.442,0,0,1-2.04-2.04l4.08-4.09A1.461,1.461,0,0,1,1021.61,4835.44Zm-11.11-.44h10a1.5,1.5,0,0,1,0,3h-10A1.5,1.5,0,0,1,1010.5,4835Z" transform="translate(-1009 -4830.94)"/>
</svg>
